# xmcd
#
# Track frame offsets: 
#        182
#        12470
#        24817
#        33695
#        44015
#        57857
#        68297
#        79997
#        92345
#        102417
#        116015
#        125877
#        136897
#        149870
#        159020
#        175877
#        190152
#        202135
#        214020
#        229445
#        239072
#        253147
#
# Disc length: 3570 seconds
#
# Revision: 4
# Processed by: cddbd v1.5.2PL0 Copyright (c) Steve Scherf et al.
# Submitted via: ExactAudioCopy v1.0b1
#
DISCID=470df016
DTITLE=Sonny Boy Williamson II - The Essential Sonny Boy Williamson II
DTITLE=Disc 2
DYEAR=1993
DGENRE=Blues
TTITLE0=Cool Disposition (stereo)
TTITLE1=Santa Claus (mono)
TTITLE2=Checkin' Up On My Baby (mono)
TTITLE3=Temperature 110 (mono)
TTITLE4=Lonesome Cabin (mono)
TTITLE5=Somebody Help Me (mono)
TTITLE6=Down Child (mono)
TTITLE7=Trust My Baby (mono)
TTITLE8=Too Close Together (mono)
TTITLE9=Too Young To Die (stereo)
TTITLE10=She's My Baby (stereo)
TTITLE11=Stop Right Now (stereo)
TTITLE12=Too Old To Think (mono)
TTITLE13=One Way Out (mono)
TTITLE14=Nine Below Zero (mono)
TTITLE15=Help Me (mono)
TTITLE16=Bye Bye Bird (mono)
TTITLE17=Bring It On Home (stereo)
TTITLE18=Decoration Day (stereo)
TTITLE19=Trying To Get Back On My Feet (stereo)
TTITLE20=Close To Me (stereo)
TTITLE21=I Can't Be Alone (mono)
EXTD=
EXTT0=
EXTT1=
EXTT2=
EXTT3=
EXTT4=
EXTT5=
EXTT6=
EXTT7=
EXTT8=
EXTT9=
EXTT10=
EXTT11=
EXTT12=
EXTT13=
EXTT14=
EXTT15=
EXTT16=
EXTT17=
EXTT18=
EXTT19=
EXTT20=
EXTT21=
PLAYORDER=
